/vscmnt/brussel_pixiu_data/_data_brussel/112/vsc11236/PredSimResults/SUBJ04opt3D/worker_09.mot
version=1
nRows=5
nColumns=50
inDegrees=yes
endheader
                time	         pelvis_tilt	         pelvis_list	     pelvis_rotation	           pelvis_tx	           pelvis_ty	           pelvis_tz	       hip_flexion_r	     hip_adduction_r	      hip_rotation_r	        knee_angle_r	       ankle_angle_r	         mtp_angle_r	       hip_flexion_l	     hip_adduction_l	      hip_rotation_l	        knee_angle_l	       ankle_angle_l	         mtp_angle_l	    lumbar_extension	      lumbar_bending	     lumbar_rotation	 ercspn_r/activation	 intobl_r/activation	 extobl_r/activation	    abd_r/activation	    add_r/activation	hamstrings_r/activation	bifemsh_r/activation	glut_max_r/activation	iliopsoas_r/activation	rect_fem_r/activation	  vasti_r/activation	gastroc_r/activation	 soleus_r/activation	tib_ant_r/activation	 ercspn_l/activation	 intobl_l/activation	 extobl_l/activation	    abd_l/activation	    add_l/activation	hamstrings_l/activation	bifemsh_l/activation	glut_max_l/activation	iliopsoas_l/activation	rect_fem_l/activation	  vasti_l/activation	gastroc_l/activation	 soleus_l/activation	tib_ant_l/activation	
          0.00000000	         -4.73271542	          0.07308476	          7.84122946	          0.00000000	          0.86949464	         -0.00661680	         34.09338589	         -2.63881252	         -7.14670507	        -11.16214302	          6.84707671	          0.26158338	        -14.78548181	         -0.48774876	         -5.07295389	         -9.58192003	          7.07560801	         32.60687504	        -12.91597531	         -1.17868558	         -9.86955299	          0.10005324	          0.17993586	          0.00999999	          0.02346243	          0.35449902	          0.08105279	          0.05604646	          0.00999999	          0.14248928	          0.02258470	          0.02882620	          0.00999999	          0.00999999	          0.39949539	          0.01567285	          0.00999999	          0.00999999	          0.03575422	          0.00999999	          0.02732041	          0.26300317	          0.01382503	          0.16875801	          0.00999999	          0.00999999	          0.29862384	          0.27055742	          0.01175798	
          0.01054796	         -4.76554149	          0.03956933	          7.68383708	          0.01826294	          0.86724654	         -0.00633404	         34.04187421	         -2.36004351	         -7.26026781	        -12.75876929	          6.48241146	          0.26336280	        -15.19563995	         -0.68975362	         -5.62638868	        -10.93447123	          6.19816600	         34.44089651	        -12.46490072	         -0.69858630	        -10.08552004	          0.08509381	          0.15303281	          0.00999999	          0.01995445	          0.40322028	          0.06994769	          0.04766669	          0.17272629	          0.12118504	          0.01920795	          0.05911805	          0.01382501	          0.01625546	          0.39845519	          0.12229752	          0.00999999	          0.00999999	          0.03040843	          0.01053438	          0.04602370	          0.22368033	          0.01175798	          0.15061635	          0.00999999	          0.00999999	          0.25397519	          0.24098331	          0.00999999	
          0.02109591	         -4.78100142	         -0.05858090	          7.50326718	          0.03683016	          0.86509627	         -0.00603409	         33.78170864	         -2.11114932	         -7.18117236	        -14.33204538	          6.14180962	          0.23570822	        -15.42822841	         -0.98455164	         -6.19914967	        -12.66339008	          5.26965517	         36.20309217	        -11.98576279	         -0.14072861	        -10.25414037	          0.07237104	          0.13015216	          0.00999999	          0.10428162	          0.34593167	          0.07542309	          0.04053982	          0.14690123	          0.10306610	          0.01633608	          0.09613474	          0.01175798	          0.01382503	          0.45332400	          0.10401224	          0.00999999	          0.00999999	          0.02586193	          0.00999999	          0.03914250	          0.19023684	          0.00999999	          0.22312904	          0.00999999	          0.00999999	          0.21600217	          0.20495277	          0.00999999	
          0.03164387	         -4.78395987	         -0.19270971	          7.29011057	          0.05542228	          0.86323257	         -0.00561947	         33.38337494	         -1.82426729	         -7.14994205	        -15.65118071	          5.63520484	          0.22016593	        -15.38410211	         -1.35527013	         -6.78474018	        -14.90284181	          4.25491963	         37.82211787	        -11.51656250	          0.45089143	        -10.36957272	          0.06986215	          0.11069250	          0.00999999	          0.14333840	          0.29901370	          0.07269824	          0.03447852	          0.12918493	          0.08765620	          0.01389360	          0.17919636	          0.00999999	          0.01175798	          0.50241661	          0.10974439	          0.00999999	          0.00999999	          0.02199519	          0.00999999	          0.03329014	          0.16179364	          0.00999999	          0.20817119	          0.00999999	          0.00999999	          0.18370667	          0.17430932	          0.00999999	
          0.04219182	         -4.77662657	         -0.35735989	          7.04671953	          0.07379515	          0.86182524	         -0.00508418	         32.92355833	         -1.49377806	         -7.14572863	        -16.85293450	          5.18189476	          0.18460749	        -14.99349477	         -1.80773187	         -7.38172165	        -17.72805147	          3.10857451	         39.18643138	        -11.08826442	          1.06941648	        -10.42941810	          0.05941674	          0.09414234	          0.00999999	          0.19310221	          0.26830997	          0.07110510	          0.02932348	          0.10986988	          0.07455031	          0.01181630	          0.29006303	          0.00999999	          0.00999999	          0.52879590	          0.15776169	          0.00999999	          0.00999999	          0.01870659	          0.02091317	          0.05131242	          0.13760311	          0.00999999	          0.17704654	          0.00999999	          0.00999999	          0.15623983	          0.14824751	          0.00999999	
